PathFileType	4	(X/Y/Z)	/Users/niels/Desktop/University/Third Semester/Perception and Action/Exam/Gymnastics Motion Tracking/Code for Gym Tracking/Analyzed Data/Webcam_Backflip/id16_1_trajectory_Sports2D/id16_1_trajectory_Sports2D_px_person00.trc
DataRate	CameraRate	NumFrames	NumMarkers	Units	OrigDataRate	OrigDataStartFrame	OrigNumFrames
29.7	29.7	14	22	m	29.7	50	100
Frame#	Time	Hip			RHip			RKnee			RAnkle			RBigToe			RSmallToe			RHeel			LHip			LKnee			LAnkle			LBigToe			LSmallToe			LHeel			Neck			Head			Nose			RShoulder			RElbow			RWrist			LShoulder			LElbow			LWrist		
		X1	Y1	Z1	X2	Y2	Z2	X3	Y3	Z3	X4	Y4	Z4	X5	Y5	Z5	X6	Y6	Z6	X7	Y7	Z7	X8	Y8	Z8	X9	Y9	Z9	X10	Y10	Z10	X11	Y11	Z11	X12	Y12	Z12	X13	Y13	Z13	X14	Y14	Z14	X15	Y15	Z15	X16	Y16	Z16	X17	Y17	Z17	X18	Y18	Z18	X19	Y19	Z19	X20	Y20	Z20	X21	Y21	Z21	X22	Y22	Z22
50	1.6835016835016834	0.9364692648853523	-1.0581975336816423	0.0	0.8663275092623386	-1.0594611304114385	0.0	0.6159131871754794	-1.0495483731991195	0.0	0.81439306640625	-1.04120849609375	0.0	0.6857673339843746	-0.24904003906249994	0.0			0.0			0.0	1.0178160786249424	-1.0593010577378026	0.0	0.996669584366788	-1.058401070042127	0.0			0.0			0.0			0.0			0.0	0.9151449315316625	-0.6665248768113191	0.0	0.8869810231488576	-0.4911299807743249	0.0	0.9004092730747937	-0.5847054042179963	0.0	0.8071734234273007	-0.7299588918352575	0.0	0.7026122049699466	-0.6075789961598335	0.0	0.830646878199349	-0.4417275890374966	0.0	1.0378435996758555	-0.6869213339575391	0.0	1.1253436660508311	-0.5368057189380512	0.0	1.217678911674293	-0.35062496176496005	0.0
51	1.7171717171717171	0.9377339474700953	-1.061723567785768	0.0	0.8692041362840085	-1.0643728254719833	0.0	0.6699515513449893	-1.0516433643050505	0.0	0.81439306640625	-1.04120849609375	0.0	0.6857673339843746	-0.24904003906249994	0.0			0.0			0.0	1.0184121302840912	-1.0633597140048803	0.0	1.0051022324641212	-1.0585258498652286	0.0			0.0			0.0			0.0			0.0	0.9137955600375706	-0.6663618077245617	0.0	0.8845453005779756	-0.494528566051993	0.0	0.8986486762996455	-0.5859949354383752	0.0	0.8086269609576531	-0.7299495679784598	0.0	0.7078537078172991	-0.6096059962291441	0.0	0.836374255444217	-0.4482305835957145	0.0	1.0344706523707852	-0.6847744343086921	0.0	1.1267981586824396	-0.5398867886195323	0.0	1.2285309449791144	-0.3623496971487295	0.0
52	1.7508417508417509	0.9391114853871659	-1.0612332947339578	0.0	0.8713189878202581	-1.0651933605962798	0.0	0.732034761774882	-1.0542236277629768	0.0	0.81439306640625	-1.04120849609375	0.0	0.6857673339843746	-0.24904003906249994	0.0			0.0			0.0	1.018101066827891	-1.0630928273442386	0.0	1.0141056431327882	-1.0592713383106562	0.0			0.0			0.0			0.0			0.0	0.9130297282398688	-0.6646528627217932	0.0	0.8841699556795997	-0.4960926180319186	0.0	0.8989574577503887	-0.5857924089548645	0.0	0.810063807753854	-0.7282723716401883	0.0	0.7112998099802121	-0.6109299231993182	0.0	0.8321520028698464	-0.4489354514574762	0.0	1.031022314688028	-0.6819241311177715	0.0	1.1258469218186706	-0.5413841729462241	0.0	1.2290680167754053	-0.3705098999787723	0.0
53	1.7845117845117844	0.9407480730345182	-1.0584011116807424	0.0	0.872946451073019	-1.0632981541444242	0.0	0.7886449538664707	-1.056940106921139	0.0	0.81439306640625	-1.04120849609375	0.0	0.6857673339843746	-0.24904003906249994	0.0			0.0			0.0	1.0171771099341442	-1.0601495186102754	0.0	1.0226779116342302	-1.060968045336656	0.0			0.0			0.0			0.0			0.0	0.9133899535608582	-0.6629968624202638	0.0	0.8863809956564809	-0.4973983466256407	0.0	0.9015254851838987	-0.5856512402548774	0.0	0.8119477704386447	-0.7259655579370086	0.0	0.7137786399178776	-0.6118897974138986	0.0	0.8190100038928613	-0.44599115023441954	0.0	1.0280542956888599	-0.6799612783113002	0.0	1.1223709167887177	-0.5429897347845742	0.0	1.2187795745102252	-0.3762277264067163	0.0
54	1.8181818181818181	0.9424481915086228	-1.0547011182548303	0.0	0.874297052141695	-1.060025469316631	0.0	0.8301903625093817	-1.0596249259059327	0.0	0.81439306640625	-1.04120849609375	0.0	0.6857673339843746	-0.24904003906249994	0.0			0.0			0.0	1.015799554100601	-1.0561251820166702	0.0	1.0292933049359836	-1.0637979770082513	0.0			0.0			0.0			0.0			0.0	0.915073014063547	-0.663111765568199	0.0	0.8913384567243247	-0.5000684234566211	0.0	0.9062637555156765	-0.5871115618450246	0.0	0.8147326102856071	-0.7244118948590261	0.0	0.7163788820994459	-0.6133759706539479	0.0	0.798808316847369	-0.44241176891819284	0.0	1.0258973886847995	-0.6805058103414281	0.0	1.1167644807604327	-0.5464005525790597	0.0	1.1981049955087824	-0.3819301170702364	0.0
55	1.8518518518518519	0.943590508520222	-1.0510732182235678	0.0	0.8752673489743249	-1.0563760009290801	0.0	0.8549994787670222	-1.0622549743503946	0.0	0.81439306640625	-1.04120849609375	0.0	0.6857673339843746	-0.24904003906249994	0.0			0.0			0.0	1.0139601576667316	-1.0521937815589288	0.0	1.0323344847395486	-1.0675503616441688	0.0			0.0			0.0			0.0			0.0	0.9179559694096701	-0.6658354676359136	0.0	0.8988179517957341	-0.5049981604316642	0.0	0.9128561668385948	-0.5908534621438961	0.0	0.8186065128501716	-0.7244946248372292	0.0	0.7199732992263388	-0.6161630004464923	0.0	0.7739184638996497	-0.4408977652220417	0.0	1.0247125114696645	-0.6841878471314559	0.0	1.109896781585866	-0.552296251087405	0.0	1.1686922917918527	-0.3899845123522048	0.0
56	1.8855218855218854	0.9434347755475943	-1.0478591506090735	0.0	0.8755009308872487	-1.0528761293935733	0.0	0.8665055039935092	-1.0646282630576862	0.0	0.81439306640625	-1.04120849609375	0.0	0.6857673339843746	-0.24904003906249994	0.0			0.0			0.0	1.0115418023223286	-1.0489613095517099	0.0	1.0308813840032314	-1.0714935262536573	0.0			0.0			0.0			0.0			0.0	0.9217974297641455	-0.6707337582062212	0.0	0.9082658880281478	-0.5119657686058718	0.0	0.9208348121331668	-0.5963654730122313	0.0	0.8233594213035226	-0.7260762026523404	0.0	0.7248527954631289	-0.6202305619123826	0.0	0.7470010132401503	-0.4430593606583762	0.0	1.0246010418663245	-0.6902840755288647	0.0	1.1028051812854978	-0.5600928708469183	0.0	1.133328350336888	-0.4015908638289384	0.0
57	1.9191919191919191	0.9416582364073441	-1.0449569723918797	0.0	0.874749416706717	-1.0496618377590305	0.0	0.8696129733995371	-1.066349023161489	0.0	0.81439306640625	-1.04120849609375	0.0	0.6857673339843746	-0.24904003906249994	0.0			0.0			0.0	1.0084140203541458	-1.0464685816209571	0.0	1.0252818259624212	-1.0744175241130984	0.0			0.0			0.0			0.0			0.0	0.9263618525139322	-0.6764796258259842	0.0	0.9188311396157886	-0.5197373780845277	0.0	0.9296552295593409	-0.6024255658904514	0.0	0.8285900861188054	-0.7281412947604466	0.0	0.7306776117343415	-0.6246969915450554	0.0	0.7208077234684414	-0.44914136978043484	0.0	1.025604193833692	-0.6971642857261766	0.0	1.0962834964560737	-0.5684284972529204	0.0	1.0955545512070661	-0.4164868766598836	0.0
58	1.9528619528619529	0.9386655191721507	-1.0420519999281572	0.0	0.8731866692439672	-1.0466425614387669	0.0	0.8686686334574585	-1.0671980584471474	0.0	0.81439306640625	-1.04120849609375	0.0	0.6857673339843746	-0.24904003906249994	0.0			0.0			0.0	1.0046220352969404	-1.0443315033455318	0.0	1.0171102350251235	-1.0750923189208443	0.0			0.0			0.0			0.0			0.0	0.9313497318368414	-0.6816001958631628	0.0	0.9294561127120211	-0.5267726422401832	0.0	0.9386742060346993	-0.6078977247760483	0.0	0.8339690829211253	-0.7294695867185811	0.0	0.7367724189088856	-0.6283178751806535	0.0	0.6979076549116499	-0.45806040361555134	0.0	1.027609990768196	-0.7031065882161944	0.0	1.0906121958003292	-0.5758742891423855	0.0	1.0590817533373666	-0.4331729792373302	0.0
59	1.9865319865319866	0.935359824817506	-1.0388494850559906	0.0	0.871346282552257	-1.0436235242888017	0.0	0.8665021929824407	-1.067341021034151	0.0	0.81439306640625	-1.04120849609375	0.0	0.6857673339843746	-0.24904003906249994	0.0			0.0			0.0	1.0005374084200331	-1.0420756873210104	0.0	1.0085014583771774	-1.0732789784908465	0.0			0.0			0.0			0.0			0.0	0.936280735345124	-0.6851692578314181	0.0	0.939041198552538	-0.532141970627563	0.0	0.9470904139797428	-0.6122253688452494	0.0	0.8392361327629765	-0.729349866015634	0.0	0.7425442544136082	-0.6301873767274926	0.0	0.6804387927420039	-0.46779302090738883	0.0	1.030179327823965	-0.7070653039921173	0.0	1.0856033650821866	-0.5815551662313275	0.0	1.0272264080416482	-0.4493911388717675	0.0
60	2.0202020202020203	0.9325877985314971	-1.0353880051590363	0.0	0.8697721929389148	-1.0404871101926982	0.0	0.8642743090221291	-1.0671696914941668	0.0	0.81439306640625	-1.04120849609375	0.0	0.6857673339843746	-0.24904003906249994	0.0			0.0			0.0	0.9967521066777953	-1.0395303925586366	0.0	1.0012269401059914	-1.0701137598369845	0.0			0.0			0.0			0.0			0.0	0.9405229264417239	-0.6871626496064906	0.0	0.9466575422207772	-0.5359865617913426	0.0	0.9539695200186314	-0.6155478641713531	0.0	0.8440529212964595	-0.7279902864663956	0.0	0.7477458223222819	-0.6303068878629643	0.0	0.6700465455456243	-0.4761338372338131	0.0	1.032519119213871	-0.7090647688137284	0.0	1.080987208704479	-0.5854755745715027	0.0	1.0026234190219447	-0.46283873447281604	0.0
61	2.0538720538720536	0.9307359289937754	-1.0322532684585974	0.0	0.8687266817275282	-1.03744298144696	0.0	0.8620572314120857	-1.0670750190358576	0.0	0.81439306640625	-1.04120849609375	0.0	0.6857673339843746	-0.24904003906249994	0.0			0.0			0.0	0.9937818556651593	-1.036983834831391	0.0	0.9961153819365736	-1.0671124792498068	0.0			0.0			0.0			0.0			0.0	0.9434344013083504	-0.6882573334008276	0.0	0.9517037215080616	-0.5392395494443543	0.0	0.9583731941755721	-0.6184699762174306	0.0	0.8479396613921788	-0.7264058012952762	0.0	0.752456945946462	-0.6295731407380709	0.0	0.6679022267562162	-0.4814575978742	0.0	1.0337599495455636	-0.7099911686840132	0.0	1.0767764168438512	-0.5883335792938666	0.0	0.9870994556405928	-0.4718974406972289	0.0
62	2.0875420875420874	0.9297173648007541	-1.030232156591809	0.0	0.8681795182741553	-1.0349491428105975	0.0	0.8597381596611379	-1.0673317656555144	0.0	0.81439306640625	-1.04120849609375	0.0	0.6857673339843746	-0.24904003906249994	0.0			0.0			0.0	0.9917827723776848	-1.0349266751580941	0.0	0.9931494842033132	-1.0652436301075026	0.0			0.0			0.0			0.0			0.0	0.9444911114230043	-0.6892625996328355	0.0	0.9538062923281859	-0.5428855356084886	0.0	0.959552986712862	-0.6215812386168585	0.0	0.8503756438533956	-0.7257730675813984	0.0	0.7568536977306627	-0.6291959165522015	0.0	0.6745575001356534	-0.4832072838384621	0.0	1.0332715423645018	-0.7109269747132624	0.0	1.0732448225532971	-0.590957415814633	0.0	0.9815148927674545	-0.47613463489897667	0.0
63	2.121212121212121	0.9292437699896086	-1.0295848658954114	0.0	0.8680203667182469	-1.0331951825624064	0.0	0.8575475286096707	-1.0680532116337238	0.0	0.81439306640625	-1.04120849609375	0.0	0.6857673339843746	-0.24904003906249994	0.0			0.0			0.0	0.9905007125194787	-1.0335322632543593	0.0	0.9919129327329396	-1.0649435992762333	0.0			0.0			0.0			0.0			0.0	0.9433711236585749	-0.6906011896893125	0.0	0.9526247122210203	-0.547290806450824	0.0	0.9571495936578301	-0.6250462504036808	0.0	0.850977849226317	-0.7266795800932121	0.0	0.7609468569250663	-0.6300361489592545	0.0	0.6897101142028876	-0.4820781091711405	0.0	1.0307664318247667	-0.7123793094979574	0.0	1.0706684919633287	-0.5938151334842906	0.0	0.9857603545960325	-0.4764012128646321	0.0
